<svg xmlns="http://www.w3.org/2000/svg" width="21" height="21" viewBox="0 0 21 21"><path d="M18.75,2.25H16.5V.75a.75.75,0,1,0-1.5,0v1.5H6V.75a.75.75,0,1,0-1.5,0v1.5H2.25A2.25,2.25,0,0,0,0,4.5V18.75A2.25,2.25,0,0,0,2.25,21h16.5A2.25,2.25,0,0,0,21,18.75V4.5A2.25,2.25,0,0,0,18.75,2.25Zm.75,16.5a.75.75,0,0,1-.75.75H2.25a.75.75,0,0,1-.75-.75V9h18Zm0-11.25H1.5v-3a.75.75,0,0,1,.75-.75H4.5v1.5a.75.75,0,1,0,1.5,0V3.75h9v1.5a.75.75,0,1,0,1.5,0V3.75h2.25a.75.75,0,0,1,.75.75v3Z" fill="#cecece"/><g transform="translate(3.75 10.5)"><path d="M87.583,238.933h-1.5a.75.75,0,0,0,0,1.5h1.5a.75.75,0,0,0,0-1.5Z" transform="translate(-85.333 -238.933)" fill="#cecece"/></g><g transform="translate(9 10.5)"><path d="M207.05,238.933h-1.5a.75.75,0,0,0,0,1.5h1.5a.75.75,0,0,0,0-1.5Z" transform="translate(-204.8 -238.933)" fill="#cecece"/></g><g transform="translate(14.25 10.5)"><path d="M326.517,238.933h-1.5a.75.75,0,0,0,0,1.5h1.5a.75.75,0,0,0,0-1.5Z" transform="translate(-324.267 -238.933)" fill="#cecece"/></g><g transform="translate(3.75 13.5)"><path d="M87.583,307.2h-1.5a.75.75,0,0,0,0,1.5h1.5a.75.75,0,0,0,0-1.5Z" transform="translate(-85.333 -307.2)" fill="#cecece"/></g><g transform="translate(9 13.5)"><path d="M207.05,307.2h-1.5a.75.75,0,0,0,0,1.5h1.5a.75.75,0,0,0,0-1.5Z" transform="translate(-204.8 -307.2)" fill="#cecece"/></g><g transform="translate(14.25 13.5)"><path d="M326.517,307.2h-1.5a.75.75,0,0,0,0,1.5h1.5a.75.75,0,0,0,0-1.5Z" transform="translate(-324.267 -307.2)" fill="#cecece"/></g><g transform="translate(3.75 16.5)"><path d="M87.583,375.467h-1.5a.75.75,0,1,0,0,1.5h1.5a.75.75,0,1,0,0-1.5Z" transform="translate(-85.333 -375.467)" fill="#cecece"/></g><g transform="translate(9 16.5)"><path d="M207.05,375.467h-1.5a.75.75,0,0,0,0,1.5h1.5a.75.75,0,0,0,0-1.5Z" transform="translate(-204.8 -375.467)" fill="#cecece"/></g><g transform="translate(14.25 16.5)"><path d="M326.517,375.467h-1.5a.75.75,0,0,0,0,1.5h1.5a.75.75,0,0,0,0-1.5Z" transform="translate(-324.267 -375.467)" fill="#cecece"/></g></svg>